<?xml version="1.0" encoding="UTF-8"?>
<svg xmlns="http://www.w3.org/2000/svg" style="display: none;">
<symbol id="chevron-right" viewBox="0 0 320 512">
<path d="M305 239c9.4 9.4 9.4 24.6 0 33.9L113 465c-9.4 9.4-24.6 9.4-33.9 0s-9.4-24.6 0-33.9l175-175L79 81c-9.4-9.4-9.4-24.6 0-33.9s24.6-9.4 33.9 0L305 239z"/>
</symbol>
<symbol id="clock-three" viewBox="0 0 512 512">
<path d="M464 256A208 208 0 1 1 48 256a208 208 0 1 1 416 0zM0 256a256 256 0 1 0 512 0A256 256 0 1 0 0 256zM232 120l0 136c0 13.3 10.7 24 24 24l104 0c13.3 0 24-10.7 24-24s-10.7-24-24-24l-80 0 0-112c0-13.3-10.7-24-24-24s-24 10.7-24 24z"/>
</symbol>
<symbol id="location-dot" viewBox="0 0 384 512">
<path d="M336 192c0-79.5-64.5-144-144-144S48 112.5 48 192c0 12.4 4.5 31.6 15.3 57.2c10.5 24.8 25.4 52.2 42.5 79.9c28.5 46.2 61.5 90.8 86.2 122.6c24.8-31.8 57.8-76.4 86.2-122.6c17.1-27.7 32-55.1 42.5-79.9C331.5 223.6 336 204.4 336 192zm48 0c0 87.4-117 243-168.3 307.2c-12.3 15.3-35.1 15.3-47.4 0C117 435 0 279.4 0 192C0 86 86 0 192 0S384 86 384 192zm-160 0a32 32 0 1 0 -64 0 32 32 0 1 0 64 0zm-112 0a80 80 0 1 1 160 0 80 80 0 1 1 -160 0z"/>
</symbol>
<symbol id="download" viewBox="0 0 512 512">
<path d="M280 24c0-13.3-10.7-24-24-24s-24 10.7-24 24l0 270.1-95-95c-9.4-9.4-24.6-9.4-33.9 0s-9.4 24.6 0 33.9L239 369c9.4 9.4 24.6 9.4 33.9 0L409 233c9.4-9.4 9.4-24.6 0-33.9s-24.6-9.4-33.9 0l-95 95L280 24zM128.8 304L64 304c-35.3 0-64 28.7-64 64l0 80c0 35.3 28.7 64 64 64l384 0c35.3 0 64-28.7 64-64l0-80c0-35.3-28.7-64-64-64l-64.8 0-48 48L448 352c8.8 0 16 7.2 16 16l0 80c0 8.8-7.2 16-16 16L64 464c-8.8 0-16-7.2-16-16l0-80c0-8.8 7.2-16 16-16l112.8 0-48-48zM432 408a24 24 0 1 0 -48 0 24 24 0 1 0 48 0z"/>
</symbol>
<symbol id="folder-open" viewBox="0 0 576 512">
<path d="M384 480l48 0c11.4 0 21.9-6 27.6-15.9l112-192c5.8-9.9 5.8-22.1 .1-32.1S555.5 224 544 224l-400 0c-11.4 0-21.9 6-27.6 15.9L48 357.1 48 96c0-8.8 7.2-16 16-16l117.5 0c4.2 0 8.3 1.7 11.3 4.7l26.5 26.5c21 21 49.5 32.8 79.2 32.8L416 144c8.8 0 16 7.2 16 16l0 32 48 0 0-32c0-35.3-28.7-64-64-64L298.5 96c-17 0-33.3-6.7-45.3-18.7L226.7 50.7c-12-12-28.3-18.7-45.3-18.7L64 32C28.7 32 0 60.7 0 96L0 416c0 35.3 28.7 64 64 64l23.7 0L384 480z"/>
</symbol>
<symbol id="folders" viewBox="0 0 576 512">
<path d="M512 336l-352 0c-8.8 0-16-7.2-16-16l0-224c0-8.8 7.2-16 16-16l117.5 0c4.2 0 8.3 1.7 11.3 4.7l26.5 26.5c21 21 49.5 32.8 79.2 32.8L512 144c8.8 0 16 7.2 16 16l0 160c0 8.8-7.2 16-16 16zM160 384l352 0c35.3 0 64-28.7 64-64l0-160c0-35.3-28.7-64-64-64L394.5 96c-17 0-33.3-6.7-45.3-18.7L322.7 50.7c-12-12-28.3-18.7-45.3-18.7L160 32c-35.3 0-64 28.7-64 64l0 224c0 35.3 28.7 64 64 64zM48 120c0-13.3-10.7-24-24-24S0 106.7 0 120L0 344c0 75.1 60.9 136 136 136l320 0c13.3 0 24-10.7 24-24s-10.7-24-24-24l-320 0c-48.6 0-88-39.4-88-88l0-224z"/>
</symbol>
<symbol id="user-plus" viewBox="0 0 640 512">
<path d="M224 48a80 80 0 1 1 0 160 80 80 0 1 1 0-160zm0 208A128 128 0 1 0 224 0a128 128 0 1 0 0 256zm-45.7 96l91.4 0c65.7 0 120.1 48.7 129 112L49.3 464c8.9-63.3 63.3-112 129-112zm0-48C79.8 304 0 383.8 0 482.3C0 498.7 13.3 512 29.7 512l388.6 0c16.4 0 29.7-13.3 29.7-29.7C448 383.8 368.2 304 269.7 304l-91.4 0zM504 312c0 13.3 10.7 24 24 24s24-10.7 24-24l0-64 64 0c13.3 0 24-10.7 24-24s-10.7-24-24-24l-64 0 0-64c0-13.3-10.7-24-24-24s-24 10.7-24 24l0 64-64 0c-13.3 0-24 10.7-24 24s10.7 24 24 24l64 0 0 64z"/>
</symbol>
<symbol id="chevron-down" viewBox="0 0 512 512">
<path d="M239 401c9.4 9.4 24.6 9.4 33.9 0L465 209c9.4-9.4 9.4-24.6 0-33.9s-24.6-9.4-33.9 0l-175 175L81 175c-9.4-9.4-24.6-9.4-33.9 0s-9.4 24.6 0 33.9L239 401z"/>
</symbol>
<symbol id="circle-question" viewBox="0 0 512 512">
<path d="M464 256A208 208 0 1 0 48 256a208 208 0 1 0 416 0zM0 256a256 256 0 1 1 512 0A256 256 0 1 1 0 256zm169.8-90.7c7.9-22.3 29.1-37.3 52.8-37.3l58.3 0c34.9 0 63.1 28.3 63.1 63.1c0 22.6-12.1 43.5-31.7 54.8L280 264.4c-.2 13-10.9 23.6-24 23.6c-13.3 0-24-10.7-24-24l0-13.5c0-8.6 4.6-16.5 12.1-20.8l44.3-25.4c4.7-2.7 7.6-7.7 7.6-13.1c0-8.4-6.8-15.1-15.1-15.1l-58.3 0c-3.4 0-6.4 2.1-7.5 5.3l-.4 1.2c-4.4 12.5-18.2 19-30.6 14.6s-19-18.2-14.6-30.6l.4-1.2zM224 352a32 32 0 1 1 64 0 32 32 0 1 1 -64 0z"/>
</symbol>
<symbol id="medal" viewBox="0 0 512 512">
<path d="M4.1 38.2L106.4 191.5c11.2-11.6 23.7-21.9 37.3-30.6L68.4 48l64.5 0 54.9 91.5c15.8-5.5 32.4-9.1 49.6-10.6l-6.1-10.1L169.3 15.5C163.5 5.9 153.1 0 141.9 0L24.6 0C11 0 0 11 0 24.6c0 4.8 1.4 9.6 4.1 13.6zm276.6 80.5l-6.1 10.1c17.2 1.5 33.8 5.2 49.6 10.6L379.2 48l64.5 0L368.4 160.9c13.6 8.7 26.1 19 37.3 30.6L507.9 38.2c2.7-4 4.1-8.8 4.1-13.6C512 11 501 0 487.4 0L370.1 0c-11.2 0-21.7 5.9-27.4 15.5L280.8 118.7zM256 208a128 128 0 1 1 0 256 128 128 0 1 1 0-256zm0 304a176 176 0 1 0 0-352 176 176 0 1 0 0 352zm7.2-257.5c-2.9-5.9-11.4-5.9-14.3 0l-19.2 38.9c-1.2 2.4-3.4 4-6 4.4L180.7 304c-6.6 1-9.2 9-4.4 13.6l31 30.2c1.9 1.8 2.7 4.5 2.3 7.1l-7.3 42.7c-1.1 6.5 5.7 11.5 11.6 8.4L252.3 386c2.3-1.2 5.1-1.2 7.4 0l38.4 20.2c5.9 3.1 12.7-1.9 11.6-8.4L302.4 355c-.4-2.6 .4-5.2 2.3-7.1l31-30.2c4.7-4.6 2.1-12.7-4.4-13.6l-42.9-6.2c-2.6-.4-4.9-2-6-4.4l-19.2-38.9z"/>
</symbol>
<symbol id="grid-2" viewBox="0 0 512 512">
<path d="M80 80l0 96 96 0 0-96L80 80zM32 80c0-26.5 21.5-48 48-48l96 0c26.5 0 48 21.5 48 48l0 96c0 26.5-21.5 48-48 48l-96 0c-26.5 0-48-21.5-48-48l0-96zM80 336l0 96 96 0 0-96-96 0zm-48 0c0-26.5 21.5-48 48-48l96 0c26.5 0 48 21.5 48 48l0 96c0 26.5-21.5 48-48 48l-96 0c-26.5 0-48-21.5-48-48l0-96zM432 80l-96 0 0 96 96 0 0-96zM336 32l96 0c26.5 0 48 21.5 48 48l0 96c0 26.5-21.5 48-48 48l-96 0c-26.5 0-48-21.5-48-48l0-96c0-26.5 21.5-48 48-48zm0 304l0 96 96 0 0-96-96 0zm-48 0c0-26.5 21.5-48 48-48l96 0c26.5 0 48 21.5 48 48l0 96c0 26.5-21.5 48-48 48l-96 0c-26.5 0-48-21.5-48-48l0-96z"/>
</symbol>
<symbol id="user-check" viewBox="0 0 640 512">
<path d="M224 48a80 80 0 1 1 0 160 80 80 0 1 1 0-160zm0 208A128 128 0 1 0 224 0a128 128 0 1 0 0 256zm-45.7 96l91.4 0c65.7 0 120.1 48.7 129 112L49.3 464c8.9-63.3 63.3-112 129-112zm0-48C79.8 304 0 383.8 0 482.3C0 498.7 13.3 512 29.7 512l388.6 0c16.4 0 29.7-13.3 29.7-29.7C448 383.8 368.2 304 269.7 304l-91.4 0zM625 177c9.4-9.4 9.4-24.6 0-33.9s-24.6-9.4-33.9 0l-111 111-47-47c-9.4-9.4-24.6-9.4-33.9 0s-9.4 24.6 0 33.9l64 64c9.4 9.4 24.6 9.4 33.9 0L625 177z"/>
</symbol>
<symbol id="circle-check" viewBox="0 0 512 512">
<path d="M256 48a208 208 0 1 1 0 416 208 208 0 1 1 0-416zm0 464A256 256 0 1 0 256 0a256 256 0 1 0 0 512zM369 209c9.4-9.4 9.4-24.6 0-33.9s-24.6-9.4-33.9 0l-111 111-47-47c-9.4-9.4-24.6-9.4-33.9 0s-9.4 24.6 0 33.9l64 64c9.4 9.4 24.6 9.4 33.9 0L369 209z"/>
</symbol>
<symbol id="user-group" viewBox="0 0 640 512">
<path d="M1.5 458.7c6-45.5 29.2-85.6 62.8-113.6C95.3 319.4 135 304 178.3 304l45.7 0 45.7 0c43.3 0 83 15.4 113.9 41.1c33.6 28 56.8 68.1 62.8 113.6c1 7.7 1.5 15.6 1.5 23.6c0 16.4-13.3 29.7-29.7 29.7l-19.6 0L49.3 512l-19.6 0C13.3 512 0 498.7 0 482.3c0-8 .5-15.9 1.5-23.6zM96 128a128 128 0 1 1 256 0A128 128 0 1 1 96 128zm208 0a80 80 0 1 0 -160 0 80 80 0 1 0 160 0zM178.3 352c-47.8 0-89.5 25.7-112.2 64c-8.6 14.4-14.4 30.7-16.8 48L98 464 350 464l48.8 0c-.4-2.7-.8-5.3-1.4-8c-2.9-14.3-8.2-27.8-15.5-40c-22.7-38.3-64.4-64-112.2-64l-91.4 0zm431 160l-136.9 0c4.9-8.8 7.6-18.9 7.6-29.7c0-65-29.5-123.2-75.9-161.8c4.3-.4 8.7-.5 13.2-.5l61.4 0C567.8 320 640 392.2 640 481.3c0 17-13.8 30.7-30.7 30.7zM432 256c-31 0-59-12.6-79.3-32.9C372.4 196.5 384 163.6 384 128c0-26.8-6.6-52.1-18.3-74.3C384.3 40.1 407.2 32 432 32c61.9 0 112 50.1 112 112s-50.1 112-112 112z"/>
</symbol>
<symbol id="clock" viewBox="0 0 512 512">
<path d="M464 256A208 208 0 1 1 48 256a208 208 0 1 1 416 0zM0 256a256 256 0 1 0 512 0A256 256 0 1 0 0 256zM232 120l0 136c0 8 4 15.5 10.7 20l96 64c11 7.4 25.9 4.4 33.3-6.7s4.4-25.9-6.7-33.3L280 243.2 280 120c0-13.3-10.7-24-24-24s-24 10.7-24 24z"/>
</symbol>
<symbol id="heart" viewBox="0 0 512 512">
<path d="M225.8 468.2l-2.5-2.3L48.1 303.2C17.4 274.7 0 234.7 0 192.8l0-3.3c0-70.4 50-130.8 119.2-144C158.6 37.9 198.9 47 231 69.6c9 6.4 17.4 13.8 25 22.3c4.2-4.8 8.7-9.2 13.5-13.3c3.7-3.2 7.5-6.2 11.5-9c0 0 0 0 0 0C313.1 47 353.4 37.9 392.8 45.4C462 58.6 512 119.1 512 189.5l0 3.3c0 41.9-17.4 81.9-48.1 110.4L288.7 465.9l-2.5 2.3c-8.2 7.6-19 11.9-30.2 11.9s-22-4.2-30.2-11.9zM239.1 145c-.4-.3-.7-.7-1-1.1l-17.8-20-.1-.1s0 0 0 0c-23.1-25.9-58-37.7-92-31.2C81.6 101.5 48 142.1 48 189.5l0 3.3c0 28.5 11.9 55.8 32.8 75.2L256 430.7 431.2 268c20.9-19.4 32.8-46.7 32.8-75.2l0-3.3c0-47.3-33.6-88-80.1-96.9c-34-6.5-69 5.4-92 31.2c0 0 0 0-.1 .1s0 0-.1 .1l-17.8 20c-.3 .4-.7 .7-1 1.1c-4.5 4.5-10.6 7-16.9 7s-12.4-2.5-16.9-7z"/>
</symbol>
<symbol id="calendar" viewBox="0 0 448 512">
<path d="M152 24c0-13.3-10.7-24-24-24s-24 10.7-24 24l0 40L64 64C28.7 64 0 92.7 0 128l0 16 0 48L0 448c0 35.3 28.7 64 64 64l320 0c35.3 0 64-28.7 64-64l0-256 0-48 0-16c0-35.3-28.7-64-64-64l-40 0 0-40c0-13.3-10.7-24-24-24s-24 10.7-24 24l0 40L152 64l0-40zM48 192l352 0 0 256c0 8.8-7.2 16-16 16L64 464c-8.8 0-16-7.2-16-16l0-256z"/>
</symbol>
<symbol id="award-simple" viewBox="0 0 384 512">
<path d="M163.1 8.1c17.7-10.8 40-10.8 57.8 0l15.6 9.5c1.2 .7 2.7 1.1 4.1 1.1l18.3-.4c20.8-.5 40.1 10.7 50 28.9l8.8 16.1c.7 1.3 1.7 2.3 3 3L336.8 75c18.2 10 29.4 29.3 28.9 50l-.4 18.3c0 1.4 .3 2.9 1.1 4.1l9.5 15.6c10.8 17.7 10.8 40 0 57.8l-9.5 15.6c-.7 1.2-1.1 2.7-1.1 4.1l.4 18.3c.5 20.8-10.7 40.1-28.9 50l-16.1 8.8c-1.3 .7-2.3 1.7-3 3L309 336.8c-10 18.2-29.3 29.4-50 28.9l-18.3-.4c-1.4 0-2.9 .3-4.1 1.1l-15.6 9.5c-17.7 10.8-40 10.8-57.8 0l-15.6-9.5c-1.2-.7-2.7-1.1-4.1-1.1l-18.3 .4c-20.8 .5-40.1-10.7-50-28.9l-8.8-16.1c-.7-1.3-1.7-2.3-3-3L47.2 309c-18.2-10-29.4-29.3-28.9-50l.4-18.3c0-1.4-.3-2.9-1.1-4.1L8.1 220.9c-10.8-17.7-10.8-40 0-57.8l9.5-15.6c.7-1.2 1.1-2.7 1.1-4.1l-.4-18.3C17.8 104.3 29 85 47.2 75l16.1-8.8c1.3-.7 2.3-1.7 3-3L75 47.2c10-18.2 29.3-29.4 50-28.9l18.3 .4c1.4 0 2.9-.3 4.1-1.1l15.6-9.5zm32.8 41c-2.4-1.5-5.4-1.5-7.8 0l-15.6 9.5c-9.1 5.5-19.6 8.3-30.2 8.1l-18.3-.4c-2.8-.1-5.4 1.4-6.8 3.9l-8.8 16.1c-5.1 9.3-12.8 17-22.1 22.1l-16.1 8.8c-2.5 1.4-4 4-3.9 6.8l.4 18.3c.3 10.6-2.6 21.1-8.1 30.2l-9.5 15.6L28.6 175.6l20.5 12.5c-1.5 2.4-1.5 5.4 0 7.8l9.5 15.6c5.5 9.1 8.3 19.6 8.1 30.2l-.4 18.3c-.1 2.8 1.4 5.4 3.9 6.8l16.1 8.8c9.3 5.1 17 12.8 22.1 22.1l8.8 16.1c1.4 2.5 4 4 6.8 3.9l18.3-.4c10.6-.3 21.1 2.6 30.2 8.1l15.6 9.5c2.4 1.5 5.4 1.5 7.8 0l15.6-9.5c9.1-5.5 19.6-8.3 30.2-8.1l18.3 .4c2.8 .1 5.4-1.4 6.8-3.9l8.8-16.1c5.1-9.3 12.8-17 22.1-22.1l16.1-8.8c2.5-1.4 4-4 3.9-6.8l-.4-18.3c-.3-10.6 2.6-21.1 8.1-30.2l9.5-15.6c1.5-2.4 1.5-5.4 0-7.8l-9.5-15.6c-5.5-9.1-8.3-19.6-8.1-30.2l.4-18.3c.1-2.8-1.4-5.4-3.9-6.8l-16.1-8.8c-9.3-5.1-17-12.8-22.1-22.1l-8.8-16.1c-1.4-2.5-4-4-6.8-3.9l-18.3 .4c-10.6 .3-21.1-2.6-30.2-8.1l-15.6-9.5zM128 192a64 64 0 1 1 128 0 64 64 0 1 1 -128 0zM64.4 492.4L88 390.1c11.7 5.2 24.5 7.9 37.8 7.6l11.1-.3 9.5 5.8c28 17 63.1 17 91.1 0l9.5-5.8 11.1 .3c13.3 .3 26.1-2.4 37.8-7.6l23.6 102.3c1.4 5.9-.7 12-5.3 15.9s-11 4.8-16.6 2.4L192 465.4 86.3 510.7c-5.5 2.4-11.9 1.4-16.6-2.4s-6.7-10-5.3-15.9z"/>
</symbol>
<symbol id="calendar-clock" viewBox="0 0 576 512">
<path d="M128 0c13.3 0 24 10.7 24 24l0 40 144 0 0-40c0-13.3 10.7-24 24-24s24 10.7 24 24l0 40 40 0c35.3 0 64 28.7 64 64l0 16 0 48-16 0-32 0-112 0L48 192l0 256c0 8.8 7.2 16 16 16l220.5 0c12.3 18.8 28 35.1 46.3 48L64 512c-35.3 0-64-28.7-64-64L0 192l0-48 0-16C0 92.7 28.7 64 64 64l40 0 0-40c0-13.3 10.7-24 24-24zM288 368a144 144 0 1 1 288 0 144 144 0 1 1 -288 0zm144-80c-8.8 0-16 7.2-16 16l0 64c0 8.8 7.2 16 16 16l48 0c8.8 0 16-7.2 16-16s-7.2-16-16-16l-32 0 0-48c0-8.8-7.2-16-16-16z"/>
</symbol>
<symbol id="eye" viewBox="0 0 576 512">
<path d="M288 80c-65.2 0-118.8 29.6-159.9 67.7C89.6 183.5 63 226 49.4 256c13.6 30 40.2 72.5 78.6 108.3C169.2 402.4 222.8 432 288 432s118.8-29.6 159.9-67.7C486.4 328.5 513 286 526.6 256c-13.6-30-40.2-72.5-78.6-108.3C406.8 109.6 353.2 80 288 80zM95.4 112.6C142.5 68.8 207.2 32 288 32s145.5 36.8 192.6 80.6c46.8 43.5 78.1 95.4 93 131.1c3.3 7.9 3.3 16.7 0 24.6c-14.9 35.7-46.2 87.7-93 131.1C433.5 443.2 368.8 480 288 480s-145.5-36.8-192.6-80.6C48.6 356 17.3 304 2.5 268.3c-3.3-7.9-3.3-16.7 0-24.6C17.3 208 48.6 156 95.4 112.6zM288 336c44.2 0 80-35.8 80-80s-35.8-80-80-80c-.7 0-1.3 0-2 0c1.3 5.1 2 10.5 2 16c0 35.3-28.7 64-64 64c-5.5 0-10.9-.7-16-2c0 .7 0 1.3 0 2c0 44.2 35.8 80 80 80zm0-208a128 128 0 1 1 0 256 128 128 0 1 1 0-256z"/>
</symbol>
<symbol id="file-pen" viewBox="0 0 576 512">
<path d="M64 464l198.6 0-5.1 20.5c-2.3 9.2-1.8 18.8 1.3 27.5L64 512c-35.3 0-64-28.7-64-64L0 64C0 28.7 28.7 0 64 0L229.5 0c17 0 33.3 6.7 45.3 18.7l90.5 90.5c12 12 18.7 28.3 18.7 45.3l0 131.1-48 48L336 160l-80 0c-17.7 0-32-14.3-32-32l0-80L64 48c-8.8 0-16 7.2-16 16l0 384c0 8.8 7.2 16 16 16zM549.8 235.7l14.4 14.4c15.6 15.6 15.6 40.9 0 56.6l-29.4 29.4-71-71 29.4-29.4c15.6-15.6 40.9-15.6 56.6 0zM311.9 417L441.1 287.8l71 71L382.9 487.9c-4.1 4.1-9.2 7-14.9 8.4l-60.1 15c-5.5 1.4-11.2-.2-15.2-4.2s-5.6-9.7-4.2-15.2l15-60.1c1.4-5.6 4.3-10.8 8.4-14.9z"/>
</symbol>
<symbol id="user" viewBox="0 0 448 512">
<path d="M304 128a80 80 0 1 0 -160 0 80 80 0 1 0 160 0zM96 128a128 128 0 1 1 256 0A128 128 0 1 1 96 128zM49.3 464l349.5 0c-8.9-63.3-63.3-112-129-112l-91.4 0c-65.7 0-120.1 48.7-129 112zM0 482.3C0 383.8 79.8 304 178.3 304l91.4 0C368.2 304 448 383.8 448 482.3c0 16.4-13.3 29.7-29.7 29.7L29.7 512C13.3 512 0 498.7 0 482.3z"/>
</symbol>
<symbol id="circle-info" viewBox="0 0 512 512">
<path d="M256 48a208 208 0 1 1 0 416 208 208 0 1 1 0-416zm0 464A256 256 0 1 0 256 0a256 256 0 1 0 0 512zM216 336c-13.3 0-24 10.7-24 24s10.7 24 24 24l80 0c13.3 0 24-10.7 24-24s-10.7-24-24-24l-8 0 0-88c0-13.3-10.7-24-24-24l-48 0c-13.3 0-24 10.7-24 24s10.7 24 24 24l24 0 0 64-24 0zm40-144a32 32 0 1 0 0-64 32 32 0 1 0 0 64z"/>
</symbol>
<symbol id="folder-plus" viewBox="0 0 512 512">
<path d="M251.7 127.6s0 0 0 0c10.5 10.5 24.7 16.4 39.6 16.4L448 144c8.8 0 16 7.2 16 16l0 256c0 8.8-7.2 16-16 16L64 432c-8.8 0-16-7.2-16-16L48 96c0-8.8 7.2-16 16-16l133.5 0c4.2 0 8.3 1.7 11.3 4.7l33.9-33.9L208.8 84.7l42.9 42.9zm33.9-33.9L242.7 50.7c-12-12-28.3-18.7-45.3-18.7L64 32C28.7 32 0 60.7 0 96L0 416c0 35.3 28.7 64 64 64l384 0c35.3 0 64-28.7 64-64l0-256c0-35.3-28.7-64-64-64L291.3 96c-2.1 0-4.2-.8-5.7-2.3zM232 376c0 13.3 10.7 24 24 24s24-10.7 24-24l0-64 64 0c13.3 0 24-10.7 24-24s-10.7-24-24-24l-64 0 0-64c0-13.3-10.7-24-24-24s-24 10.7-24 24l0 64-64 0c-13.3 0-24 10.7-24 24s10.7 24 24 24l64 0 0 64z"/>
</symbol>
<symbol id="share" viewBox="0 0 512 512">
<path d="M288 240l-96 0c-66.2 0-122 44.7-138.8 105.5C49.9 333.1 48 319.3 48 304c0-70.7 57.3-128 128-128l112 0 24 0c13.3 0 24-10.7 24-24l0-24 0-28.1L456.1 208 336 316.1l0-28.1 0-24c0-13.3-10.7-24-24-24l-24 0zm0 48l0 48 0 16c0 12.6 7.4 24.1 19 29.2s25 3 34.4-5.4l160-144c6.7-6.1 10.6-14.7 10.6-23.8s-3.8-17.7-10.6-23.8l-160-144c-9.4-8.5-22.9-10.6-34.4-5.4s-19 16.6-19 29.2l0 16 0 48-48 0-64 0C78.8 128 0 206.8 0 304c0 78 38.6 126.2 68.7 152.1c4.1 3.5 8.1 6.6 11.7 9.3c3.2 2.4 6.2 4.4 8.9 6.2c4.5 3 8.3 5.1 10.8 6.5c2.5 1.4 5.3 1.9 8.1 1.9c10.9 0 19.7-8.9 19.7-19.7c0-6.8-3.6-13.2-8.3-18.1c-.5-.5-.9-.9-1.4-1.4c-2.4-2.3-5.1-5.1-7.7-8.6c-1.7-2.3-3.4-5-5-7.9c-5.3-9.7-9.5-22.9-9.5-40.2c0-53 43-96 96-96l48 0 48 0z"/>
</symbol>
<symbol id="circle-dot" viewBox="0 0 512 512">
<path d="M464 256A208 208 0 1 0 48 256a208 208 0 1 0 416 0zM0 256a256 256 0 1 1 512 0A256 256 0 1 1 0 256zm256-96a96 96 0 1 1 0 192 96 96 0 1 1 0-192z"/>
</symbol>
<symbol id="award" viewBox="0 0 384 512">
<path d="M163.1 8.1c17.7-10.8 40-10.8 57.8 0l15.6 9.5c1.2 .7 2.7 1.1 4.1 1.1l18.3-.4c20.8-.5 40.1 10.7 50 28.9l8.8 16.1c.7 1.3 1.7 2.3 3 3L336.8 75c18.2 10 29.4 29.3 28.9 50l-.4 18.3c0 1.4 .3 2.9 1.1 4.1l9.5 15.6c10.8 17.7 10.8 40 0 57.8l-9.5 15.6c-.7 1.2-1.1 2.7-1.1 4.1l.4 18.3c.5 20.8-10.7 40.1-28.9 50l-16.1 8.8c-1.3 .7-2.3 1.7-3 3L309 336.8c-10 18.2-29.3 29.4-50 28.9l-18.3-.4c-1.4 0-2.9 .3-4.1 1.1l-15.6 9.5c-17.7 10.8-40 10.8-57.8 0l-15.6-9.5c-1.2-.7-2.7-1.1-4.1-1.1l-18.3 .4c-20.8 .5-40.1-10.7-50-28.9l-8.8-16.1c-.7-1.3-1.7-2.3-3-3L47.2 309c-18.2-10-29.4-29.3-28.9-50l.4-18.3c0-1.4-.3-2.9-1.1-4.1L8.1 220.9c-10.8-17.7-10.8-40 0-57.8l9.5-15.6c.7-1.2 1.1-2.7 1.1-4.1l-.4-18.3C17.8 104.3 29 85 47.2 75l16.1-8.8c1.3-.7 2.3-1.7 3-3L75 47.2c10-18.2 29.3-29.4 50-28.9l18.3 .4c1.4 0 2.9-.3 4.1-1.1l15.6-9.5zm32.8 41c-2.4-1.5-5.4-1.5-7.8 0l-15.6 9.5c-9.1 5.5-19.6 8.3-30.2 8.1l-18.3-.4c-2.8-.1-5.4 1.4-6.8 3.9l-8.8 16.1c-5.1 9.3-12.8 17-22.1 22.1l-16.1 8.8c-2.5 1.4-4 4-3.9 6.8l.4 18.3c.3 10.6-2.6 21.1-8.1 30.2l-9.5 15.6L28.6 175.6l20.5 12.5c-1.5 2.4-1.5 5.4 0 7.8l9.5 15.6c5.5 9.1 8.3 19.6 8.1 30.2l-.4 18.3c-.1 2.8 1.4 5.4 3.9 6.8l16.1 8.8c9.3 5.1 17 12.8 22.1 22.1l8.8 16.1c1.4 2.5 4 4 6.8 3.9l18.3-.4c10.6-.3 21.1 2.6 30.2 8.1l15.6 9.5c2.4 1.5 5.4 1.5 7.8 0l15.6-9.5c9.1-5.5 19.6-8.3 30.2-8.1l18.3 .4c2.8 .1 5.4-1.4 6.8-3.9l8.8-16.1c5.1-9.3 12.8-17 22.1-22.1l16.1-8.8c2.5-1.4 4-4 3.9-6.8l-.4-18.3c-.3-10.6 2.6-21.1 8.1-30.2l9.5-15.6c1.5-2.4 1.5-5.4 0-7.8l-9.5-15.6c-5.5-9.1-8.3-19.6-8.1-30.2l.4-18.3c.1-2.8-1.4-5.4-3.9-6.8l-16.1-8.8c-9.3-5.1-17-12.8-22.1-22.1l-8.8-16.1c-1.4-2.5-4-4-6.8-3.9l-18.3 .4c-10.6 .3-21.1-2.6-30.2-8.1l-15.6-9.5zM128 192a64 64 0 1 1 128 0 64 64 0 1 1 -128 0zM1.3 441.8l41.2-97.9 4.5 8.2c15.7 28.7 46.1 46.3 78.9 45.5l11.1-.3 9.5 5.8c8 4.9 16.7 8.4 25.6 10.5l-37.3 88.5c-2.3 5.5-7.4 9.2-13.3 9.7s-11.6-2.2-14.8-7.2L74.4 455.5l-56.1 8.3c-5.7 .8-11.4-1.5-15-6s-4.3-10.7-2.1-16zm248 60.4L212 413.7c8.9-2.1 17.5-5.6 25.5-10.5l9.5-5.8 11.1 .3c32.7 .8 63.2-16.8 78.9-45.5l4.5-8.2 41.2 97.9c2.2 5.3 1.4 11.4-2.1 16s-9.3 6.9-15 6l-56.1-8.3-32.2 49.2c-3.2 5-8.9 7.7-14.8 7.2s-11-4.3-13.3-9.7z"/>
</symbol>
<symbol id="filter" viewBox="0 0 512 512">
<path d="M0 73.7C0 50.7 18.7 32 41.7 32l428.6 0c23 0 41.7 18.7 41.7 41.7c0 9.6-3.3 18.9-9.4 26.3L336 304.5l0 143.2c0 17.8-14.5 32.3-32.3 32.3c-7.3 0-14.4-2.5-20.1-7l-92.5-73.4c-9.6-7.6-15.1-19.1-15.1-31.3l0-63.7L9.4 100C3.3 92.6 0 83.3 0 73.7zM55 80L218.6 280.8c3.5 4.3 5.4 9.6 5.4 15.2l0 68.4 64 50.8L288 296c0-5.5 1.9-10.9 5.4-15.2L457 80 55 80z"/>
</symbol>
<symbol id="arrow-right-to-bracket" viewBox="0 0 512 512">
<path d="M217 401L345 273c9.4-9.4 9.4-24.6 0-33.9L217 111c-9.4-9.4-24.6-9.4-33.9 0s-9.4 24.6 0 33.9l87 87L24 232c-13.3 0-24 10.7-24 24s10.7 24 24 24l246.1 0-87 87c-9.4 9.4-9.4 24.6 0 33.9s24.6 9.4 33.9 0zM344 80l80 0c22.1 0 40 17.9 40 40l0 272c0 22.1-17.9 40-40 40l-80 0c-13.3 0-24 10.7-24 24s10.7 24 24 24l80 0c48.6 0 88-39.4 88-88l0-272c0-48.6-39.4-88-88-88l-80 0c-13.3 0-24 10.7-24 24s10.7 24 24 24z"/>
</symbol>
<symbol id="file-word" viewBox="0 0 384 512">
<path d="M48 448L48 64c0-8.8 7.2-16 16-16l160 0 0 80c0 17.7 14.3 32 32 32l80 0 0 288c0 8.8-7.2 16-16 16L64 464c-8.8 0-16-7.2-16-16zM64 0C28.7 0 0 28.7 0 64L0 448c0 35.3 28.7 64 64 64l256 0c35.3 0 64-28.7 64-64l0-293.5c0-17-6.7-33.3-18.7-45.3L274.7 18.7C262.7 6.7 246.5 0 229.5 0L64 0zm55 241.1c-3.8-12.7-17.2-19.9-29.9-16.1s-19.9 17.2-16.1 29.9l48 160c3 10.2 12.4 17.1 23 17.1s19.9-7 23-17.1l25-83.4 25 83.4c3 10.2 12.4 17.1 23 17.1s19.9-7 23-17.1l48-160c3.8-12.7-3.4-26.1-16.1-29.9s-26.1 3.4-29.9 16.1l-25 83.4-25-83.4c-3-10.2-12.4-17.1-23-17.1s-19.9 7-23 17.1l-25 83.4-25-83.4z"/>
</symbol>
<symbol id="file-pdf" viewBox="0 0 512 512">
<path d="M64 464l48 0 0 48-48 0c-35.3 0-64-28.7-64-64L0 64C0 28.7 28.7 0 64 0L229.5 0c17 0 33.3 6.7 45.3 18.7l90.5 90.5c12 12 18.7 28.3 18.7 45.3L384 304l-48 0 0-144-80 0c-17.7 0-32-14.3-32-32l0-80L64 48c-8.8 0-16 7.2-16 16l0 384c0 8.8 7.2 16 16 16zM176 352l32 0c30.9 0 56 25.1 56 56s-25.1 56-56 56l-16 0 0 32c0 8.8-7.2 16-16 16s-16-7.2-16-16l0-48 0-80c0-8.8 7.2-16 16-16zm32 80c13.3 0 24-10.7 24-24s-10.7-24-24-24l-16 0 0 48 16 0zm96-80l32 0c26.5 0 48 21.5 48 48l0 64c0 26.5-21.5 48-48 48l-32 0c-8.8 0-16-7.2-16-16l0-128c0-8.8 7.2-16 16-16zm32 128c8.8 0 16-7.2 16-16l0-64c0-8.8-7.2-16-16-16l-16 0 0 96 16 0zm80-112c0-8.8 7.2-16 16-16l48 0c8.8 0 16 7.2 16 16s-7.2 16-16 16l-32 0 0 32 32 0c8.8 0 16 7.2 16 16s-7.2 16-16 16l-32 0 0 48c0 8.8-7.2 16-16 16s-16-7.2-16-16l0-64 0-64z"/>
</symbol>
<symbol id="trash" viewBox="0 0 448 512">
<path d="M177.1 48l93.7 0c2.7 0 5.2 1.3 6.7 3.6l19 28.4-145 0 19-28.4c1.5-2.2 4-3.6 6.7-3.6zM354.2 80L317.5 24.9C307.1 9.4 289.6 0 270.9 0L177.1 0c-18.7 0-36.2 9.4-46.6 24.9L93.8 80 80.1 80 32 80l-8 0C10.7 80 0 90.7 0 104s10.7 24 24 24l11.6 0L59.6 452.7c2.5 33.4 30.3 59.3 63.8 59.3l201.1 0c33.5 0 61.3-25.9 63.8-59.3L412.4 128l11.6 0c13.3 0 24-10.7 24-24s-10.7-24-24-24l-8 0-48.1 0-13.7 0zm10.1 48L340.5 449.2c-.6 8.4-7.6 14.8-16 14.8l-201.1 0c-8.4 0-15.3-6.5-16-14.8L83.7 128l280.6 0z"/>
</symbol>
<symbol id="star" viewBox="0 0 576 512">
<path d="M287.9 0c9.2 0 17.6 5.2 21.6 13.5l68.6 141.3 153.2 22.6c9 1.3 16.5 7.6 19.3 16.3s.5 18.1-5.9 24.5L433.6 328.4l26.2 155.6c1.5 9-2.2 18.1-9.7 23.5s-17.3 6-25.3 1.7l-137-73.2L151 509.1c-8.1 4.3-17.9 3.7-25.3-1.7s-11.2-14.5-9.7-23.5l26.2-155.6L31.1 218.2c-6.5-6.4-8.7-15.9-5.9-24.5s10.3-14.9 19.3-16.3l153.2-22.6L266.3 13.5C270.4 5.2 278.7 0 287.9 0zm0 79L235.4 187.2c-3.5 7.1-10.2 12.1-18.1 13.3L99 217.9 184.9 303c5.5 5.5 8.1 13.3 6.8 21L171.4 443.7l105.2-56.2c7.1-3.8 15.6-3.8 22.6 0l105.2 56.2L384.2 324.1c-1.3-7.7 1.2-15.5 6.8-21l85.9-85.1L358.6 200.5c-7.8-1.2-14.6-6.1-18.1-13.3L287.9 79z"/>
</symbol>
<symbol id="folder" viewBox="0 0 512 512">
<path d="M0 96C0 60.7 28.7 32 64 32l132.1 0c19.1 0 37.4 7.6 50.9 21.1L289.9 96 448 96c35.3 0 64 28.7 64 64l0 256c0 35.3-28.7 64-64 64L64 480c-35.3 0-64-28.7-64-64L0 96zM64 80c-8.8 0-16 7.2-16 16l0 320c0 8.8 7.2 16 16 16l384 0c8.8 0 16-7.2 16-16l0-256c0-8.8-7.2-16-16-16l-161.4 0c-10.6 0-20.8-4.2-28.3-11.7L213.1 87c-4.5-4.5-10.6-7-17-7L64 80z"/>
</symbol>
<symbol id="file-excel" viewBox="0 0 384 512">
<path d="M48 448L48 64c0-8.8 7.2-16 16-16l160 0 0 80c0 17.7 14.3 32 32 32l80 0 0 288c0 8.8-7.2 16-16 16L64 464c-8.8 0-16-7.2-16-16zM64 0C28.7 0 0 28.7 0 64L0 448c0 35.3 28.7 64 64 64l256 0c35.3 0 64-28.7 64-64l0-293.5c0-17-6.7-33.3-18.7-45.3L274.7 18.7C262.7 6.7 246.5 0 229.5 0L64 0zm90.9 233.3c-8.1-10.5-23.2-12.3-33.7-4.2s-12.3 23.2-4.2 33.7L161.6 320l-44.5 57.3c-8.1 10.5-6.3 25.5 4.2 33.7s25.5 6.3 33.7-4.2L192 359.1l37.1 47.6c8.1 10.5 23.2 12.3 33.7 4.2s12.3-23.2 4.2-33.7L222.4 320l44.5-57.3c8.1-10.5 6.3-25.5-4.2-33.7s-25.5-6.3-33.7 4.2L192 280.9l-37.1-47.6z"/>
</symbol>
<symbol id="file-video" viewBox="0 0 384 512">
<path d="M320 464c8.8 0 16-7.2 16-16l0-288-80 0c-17.7 0-32-14.3-32-32l0-80L64 48c-8.8 0-16 7.2-16 16l0 384c0 8.8 7.2 16 16 16l256 0zM0 64C0 28.7 28.7 0 64 0L229.5 0c17 0 33.3 6.7 45.3 18.7l90.5 90.5c12 12 18.7 28.3 18.7 45.3L384 448c0 35.3-28.7 64-64 64L64 512c-35.3 0-64-28.7-64-64L0 64zM80 288c0-17.7 14.3-32 32-32l96 0c17.7 0 32 14.3 32 32l0 16 44.9-29.9c2-1.3 4.4-2.1 6.8-2.1c6.8 0 12.3 5.5 12.3 12.3l0 103.4c0 6.8-5.5 12.3-12.3 12.3c-2.4 0-4.8-.7-6.8-2.1L240 368l0 16c0 17.7-14.3 32-32 32l-96 0c-17.7 0-32-14.3-32-32l0-96z"/>
</symbol>
<symbol id="file" viewBox="0 0 384 512">
<path d="M320 464c8.8 0 16-7.2 16-16l0-288-80 0c-17.7 0-32-14.3-32-32l0-80L64 48c-8.8 0-16 7.2-16 16l0 384c0 8.8 7.2 16 16 16l256 0zM0 64C0 28.7 28.7 0 64 0L229.5 0c17 0 33.3 6.7 45.3 18.7l90.5 90.5c12 12 18.7 28.3 18.7 45.3L384 448c0 35.3-28.7 64-64 64L64 512c-35.3 0-64-28.7-64-64L0 64z"/>
</symbol>
<symbol id="users" viewBox="0 0 640 512">
<path d="M144 160A80 80 0 1 0 144 0a80 80 0 1 0 0 160zm368 0A80 80 0 1 0 512 0a80 80 0 1 0 0 160zM0 298.7C0 310.4 9.6 320 21.3 320l213.3 0c.2 0 .4 0 .7 0c-26.6-23.5-43.3-57.8-43.3-96c0-7.6 .7-15 1.9-22.3c-13.6-6.3-28.7-9.7-44.6-9.7l-42.7 0C47.8 192 0 239.8 0 298.7zM405.3 320l213.3 0c11.8 0 21.3-9.6 21.3-21.3C640 239.8 592.2 192 533.3 192l-42.7 0c-15.9 0-31 3.5-44.6 9.7c1.3 7.2 1.9 14.7 1.9 22.3c0 38.2-16.8 72.5-43.3 96c.2 0 .4 0 .7 0zM320 176a48 48 0 1 1 0 96 48 48 0 1 1 0-96zm0 144a96 96 0 1 0 0-192 96 96 0 1 0 0 192zm-58.7 80l117.3 0c39.8 0 73.2 27.2 82.6 64l-282.6 0c9.5-36.8 42.9-64 82.6-64zm0-48C187.7 352 128 411.7 128 485.3c0 14.7 11.9 26.7 26.7 26.7l330.7 0c14.7 0 26.7-11.9 26.7-26.7C512 411.7 452.3 352 378.7 352l-117.3 0z"/>
</symbol>
<symbol id="sliders" viewBox="0 0 512 512">
<path d="M0 416c0 13.3 10.7 24 24 24l59.7 0c10.2 32.5 40.5 56 76.3 56s66.1-23.5 76.3-56L488 440c13.3 0 24-10.7 24-24s-10.7-24-24-24l-251.7 0c-10.2-32.5-40.5-56-76.3-56s-66.1 23.5-76.3 56L24 392c-13.3 0-24 10.7-24 24zm128 0a32 32 0 1 1 64 0 32 32 0 1 1 -64 0zM320 256a32 32 0 1 1 64 0 32 32 0 1 1 -64 0zm32-80c-35.8 0-66.1 23.5-76.3 56L24 232c-13.3 0-24 10.7-24 24s10.7 24 24 24l251.7 0c10.2 32.5 40.5 56 76.3 56s66.1-23.5 76.3-56l59.7 0c13.3 0 24-10.7 24-24s-10.7-24-24-24l-59.7 0c-10.2-32.5-40.5-56-76.3-56zM192 128a32 32 0 1 1 0-64 32 32 0 1 1 0 64zm76.3-56C258.1 39.5 227.8 16 192 16s-66.1 23.5-76.3 56L24 72C10.7 72 0 82.7 0 96s10.7 24 24 24l91.7 0c10.2 32.5 40.5 56 76.3 56s66.1-23.5 76.3-56L488 120c13.3 0 24-10.7 24-24s-10.7-24-24-24L268.3 72z"/>
</symbol>
<symbol id="trophy" viewBox="0 0 576 512">
<path d="M248.8 309.7c-27.6-30.3-65.5-101-71.8-261.7l222.2 0c-6.4 160.7-44.3 231.4-71.8 261.7c-13.7 15.1-25.9 21.4-33.1 24.1c-2.6 1-4.7 1.5-6.1 1.9c-1.4-.3-3.5-.9-6.1-1.9c-7.2-2.7-19.4-9-33.1-24.1zM400 0L176 0c-26.5 0-48.1 21.8-47.1 48.2c.2 5.3 .4 10.6 .7 15.8L24 64C10.7 64 0 74.7 0 88C0 196.5 45.9 265.7 101.5 308.6c53.9 41.7 115.7 57.6 149.5 63.7c4.7 2.5 9.1 4.5 13.1 6.1l0 85.6-80 0c-13.3 0-24 10.7-24 24s10.7 24 24 24l104 0 104 0c13.3 0 24-10.7 24-24s-10.7-24-24-24l-80 0 0-85.6c4-1.6 8.4-3.6 13.1-6.1c33.8-6 95.5-22 149.5-63.7C530.1 265.7 576 196.5 576 88c0-13.3-10.7-24-24-24L446.4 64c.3-5.2 .5-10.4 .7-15.8C448.1 21.8 426.5 0 400 0zm42.7 112l84.4 0c-6 78.4-41.3 127.3-81.9 158.6c-17.5 13.6-36.3 24-54.4 32c22.7-40.3 42.8-100.5 51.9-190.6zM185.2 302.6c-18.1-8-36.8-18.4-54.4-32C90.2 239.3 54.9 190.4 48.9 112l84.4 0c9.1 90.1 29.2 150.3 51.9 190.6z"/>
</symbol>
<symbol id="chevron-left" viewBox="0 0 320 512">
<path d="M15 239c-9.4 9.4-9.4 24.6 0 33.9L207 465c9.4 9.4 24.6 9.4 33.9 0s9.4-24.6 0-33.9L65.9 256 241 81c9.4-9.4 9.4-24.6 0-33.9s-24.6-9.4-33.9 0L15 239z"/>
</symbol>
<symbol id="gear" viewBox="0 0 512 512">
<path d="M256 0c17 0 33.6 1.7 49.8 4.8c7.9 1.5 21.8 6.1 29.4 20.1c2 3.7 3.6 7.6 4.6 11.8l9.3 38.5C350.5 81 360.3 86.7 366 85l38-11.2c4-1.2 8.1-1.8 12.2-1.9c16.1-.5 27 9.4 32.3 15.4c22.1 25.1 39.1 54.6 49.9 86.3c2.6 7.6 5.6 21.8-2.7 35.4c-2.2 3.6-4.9 7-8 10L459 246.3c-4.2 4-4.2 15.5 0 19.5l28.7 27.3c3.1 3 5.8 6.4 8 10c8.2 13.6 5.2 27.8 2.7 35.4c-10.8 31.7-27.8 61.1-49.9 86.3c-5.3 6-16.3 15.9-32.3 15.4c-4.1-.1-8.2-.8-12.2-1.9L366 427c-5.7-1.7-15.5 4-16.9 9.8l-9.3 38.5c-1 4.2-2.6 8.2-4.6 11.8c-7.7 14-21.6 18.5-29.4 20.1C289.6 510.3 273 512 256 512s-33.6-1.7-49.8-4.8c-7.9-1.5-21.8-6.1-29.4-20.1c-2-3.7-3.6-7.6-4.6-11.8l-9.3-38.5c-1.4-5.8-11.2-11.5-16.9-9.8l-38 11.2c-4 1.2-8.1 1.8-12.2 1.9c-16.1 .5-27-9.4-32.3-15.4c-22-25.1-39.1-54.6-49.9-86.3c-2.6-7.6-5.6-21.8 2.7-35.4c2.2-3.6 4.9-7 8-10L53 265.7c4.2-4 4.2-15.5 0-19.5L24.2 218.9c-3.1-3-5.8-6.4-8-10C8 195.3 11 181.1 13.6 173.6c10.8-31.7 27.8-61.1 49.9-86.3c5.3-6 16.3-15.9 32.3-15.4c4.1 .1 8.2 .8 12.2 1.9L146 85c5.7 1.7 15.5-4 16.9-9.8l9.3-38.5c1-4.2 2.6-8.2 4.6-11.8c7.7-14 21.6-18.5 29.4-20.1C222.4 1.7 239 0 256 0zM218.1 51.4l-8.5 35.1c-7.8 32.3-45.3 53.9-77.2 44.6L97.9 120.9c-16.5 19.3-29.5 41.7-38 65.7l26.2 24.9c24 22.8 24 66.2 0 89L59.9 325.4c8.5 24 21.5 46.4 38 65.7l34.6-10.2c31.8-9.4 69.4 12.3 77.2 44.6l8.5 35.1c24.6 4.5 51.3 4.5 75.9 0l8.5-35.1c7.8-32.3 45.3-53.9 77.2-44.6l34.6 10.2c16.5-19.3 29.5-41.7 38-65.7l-26.2-24.9c-24-22.8-24-66.2 0-89l26.2-24.9c-8.5-24-21.5-46.4-38-65.7l-34.6 10.2c-31.8 9.4-69.4-12.3-77.2-44.6l-8.5-35.1c-24.6-4.5-51.3-4.5-75.9 0zM208 256a48 48 0 1 0 96 0 48 48 0 1 0 -96 0zm48 96a96 96 0 1 1 0-192 96 96 0 1 1 0 192z"/>
</symbol>
<symbol id="plus" viewBox="0 0 448 512">
<path d="M248 72c0-13.3-10.7-24-24-24s-24 10.7-24 24l0 160L40 232c-13.3 0-24 10.7-24 24s10.7 24 24 24l160 0 0 160c0 13.3 10.7 24 24 24s24-10.7 24-24l0-160 160 0c13.3 0 24-10.7 24-24s-10.7-24-24-24l-160 0 0-160z"/>
</symbol>
<symbol id="graduation-cap" viewBox="0 0 640 512">
<path d="M320 80c2.5 0 5 .4 7.4 1.3l218 78.7-218 78.7c-2.4 .9-4.9 1.3-7.4 1.3s-5-.4-7.4-1.3L184.9 192.6l140.8-52.8c8.3-3.1 12.5-12.3 9.4-20.6s-12.3-12.5-20.6-9.4L154.9 169.6c-5.2 2-10.3 4.2-15.3 6.6L94.7 160l218-78.7c2.4-.9 4.9-1.3 7.4-1.3zM15.8 182.6l77.4 27.9c-27.2 28.7-43.7 66.7-45.1 107.7c-.1 .6-.1 1.2-.1 1.8c0 28.4-10.8 57.8-22.3 80.8c-6.5 13-13.9 25.8-22.5 37.6C0 442.7-.9 448.3 .9 453.4s6 8.9 11.2 10.2l64 16c4.2 1.1 8.7 .3 12.4-2s6.3-6.1 7.1-10.4c8.6-42.8 4.3-81.2-2.1-108.7c-3.2-14-7.5-28.3-13.4-41.5c1.9-37 19.2-70.9 46.7-94.2l169.5 61.2c7.6 2.7 15.6 4.1 23.7 4.1s16.1-1.4 23.7-4.1L624.2 182.6c9.5-3.4 15.8-12.5 15.8-22.6s-6.3-19.1-15.8-22.6L343.7 36.1C336.1 33.4 328.1 32 320 32s-16.1 1.4-23.7 4.1L15.8 137.4C6.3 140.9 0 149.9 0 160s6.3 19.1 15.8 22.6zm480.8 80l-46.5 16.8 12.7 120.5c-4.8 3.5-12.8 8-24.6 12.6C410 423.6 368 432 320 432s-90-8.4-118.3-19.4c-11.8-4.6-19.8-9.2-24.6-12.6l12.7-120.5-46.5-16.8L128 408c0 35.3 86 72 192 72s192-36.7 192-72L496.7 262.6zM467.4 396c0 0-.1 .1-.3 .4c.2-.3 .3-.4 .3-.4zm-294.8 0c0 0 .1 .1 .3 .4c-.2-.3-.3-.4-.3-.4z"/>
</symbol>
<symbol id="circle-x" viewBox="0 0 512 512">
<path d="M256 48a208 208 0 1 1 0 416 208 208 0 1 1 0-416zm0 464A256 256 0 1 0 256 0a256 256 0 1 0 0 512zM186.3 136.5c-8.6-10.1-23.7-11.4-33.8-2.8s-11.4 23.7-2.8 33.8L224.6 256l-74.9 88.5c-8.6 10.1-7.3 25.3 2.8 33.8s25.3 7.3 33.8-2.8L256 293.2l69.7 82.3c8.6 10.1 23.7 11.4 33.8 2.8s11.4-23.7 2.8-33.8L287.4 256l74.9-88.5c8.6-10.1 7.3-25.3-2.8-33.8s-25.3-7.3-33.8 2.8L256 218.8l-69.7-82.3z"/>
</symbol>
<symbol id="phone" viewBox="0 0 512 512">
<path d="M375.8 275.2c-16.4-7-35.4-2.4-46.7 11.4l-33.2 40.6c-46-26.7-84.4-65.1-111.1-111.1L225.3 183c13.8-11.3 18.5-30.3 11.4-46.7l-48-112C181.2 6.7 162.3-3.1 143.6 .9l-112 24C13.2 28.8 0 45.1 0 64c0 0 0 0 0 0C0 295.2 175.2 485.6 400.1 509.5c9.8 1 19.6 1.8 29.6 2.2c0 0 0 0 0 0c0 0 .1 0 .1 0c6.1 .2 12.1 .4 18.2 .4c0 0 0 0 0 0c18.9 0 35.2-13.2 39.1-31.6l24-112c4-18.7-5.8-37.6-23.4-45.1l-112-48zM441.5 464C225.8 460.5 51.5 286.2 48.1 70.5l99.2-21.3 43 100.4L154.4 179c-18.2 14.9-22.9 40.8-11.1 61.2c30.9 53.3 75.3 97.7 128.6 128.6c20.4 11.8 46.3 7.1 61.2-11.1l29.4-35.9 100.4 43L441.5 464zM48 64s0 0 0 0s0 0 0 0s0 0 0 0s0 0 0 0s0 0 0 0s0 0 0 0s0 0 0 0s0 0 0 0s0 0 0 0s0 0 0 0s0 0 0 0s0 0 0 0s0 0 0 0s0 0 0 0s0 0 0 0s0 0 0 0s0 0 0 0s0 0 0 0s0 0 0 0s0 0 0 0s0 0 0 0s0 0 0 0s0 0 0 0s0 0 0 0z"/>
</symbol>
<symbol id="pen-to-square" viewBox="0 0 512 512">
<path d="M441 58.9L453.1 71c9.4 9.4 9.4 24.6 0 33.9L424 134.1 377.9 88 407 58.9c9.4-9.4 24.6-9.4 33.9 0zM209.8 256.2L344 121.9 390.1 168 255.8 302.2c-2.9 2.9-6.5 5-10.4 6.1l-58.5 16.7 16.7-58.5c1.1-3.9 3.2-7.5 6.1-10.4zM373.1 25L175.8 222.2c-8.7 8.7-15 19.4-18.3 31.1l-28.6 100c-2.4 8.4-.1 17.4 6.1 23.6s15.2 8.5 23.6 6.1l100-28.6c11.8-3.4 22.5-9.7 31.1-18.3L487 138.9c28.1-28.1 28.1-73.7 0-101.8L474.9 25C446.8-3.1 401.2-3.1 373.1 25zM88 64C39.4 64 0 103.4 0 152L0 424c0 48.6 39.4 88 88 88l272 0c48.6 0 88-39.4 88-88l0-112c0-13.3-10.7-24-24-24s-24 10.7-24 24l0 112c0 22.1-17.9 40-40 40L88 464c-22.1 0-40-17.9-40-40l0-272c0-22.1 17.9-40 40-40l112 0c13.3 0 24-10.7 24-24s-10.7-24-24-24L88 64z"/>
</symbol>
<symbol id="globe" viewBox="0 0 512 512">
<path d="M256 464c7.4 0 27-7.2 47.6-48.4c8.8-17.7 16.4-39.2 22-63.6l-139.2 0c5.6 24.4 13.2 45.9 22 63.6C229 456.8 248.6 464 256 464zM178.5 304l155 0c1.6-15.3 2.5-31.4 2.5-48s-.9-32.7-2.5-48l-155 0c-1.6 15.3-2.5 31.4-2.5 48s.9 32.7 2.5 48zm7.9-144l139.2 0c-5.6-24.4-13.2-45.9-22-63.6C283 55.2 263.4 48 256 48s-27 7.2-47.6 48.4c-8.8 17.7-16.4 39.2-22 63.6zm195.3 48c1.5 15.5 2.2 31.6 2.2 48s-.8 32.5-2.2 48l76.7 0c3.6-15.4 5.6-31.5 5.6-48s-1.9-32.6-5.6-48l-76.7 0zm58.8-48c-21.4-41.1-56.1-74.1-98.4-93.4c14.1 25.6 25.3 57.5 32.6 93.4l65.9 0zm-303.3 0c7.3-35.9 18.5-67.7 32.6-93.4c-42.3 19.3-77 52.3-98.4 93.4l65.9 0zM53.6 208c-3.6 15.4-5.6 31.5-5.6 48s1.9 32.6 5.6 48l76.7 0c-1.5-15.5-2.2-31.6-2.2-48s.8-32.5 2.2-48l-76.7 0zM342.1 445.4c42.3-19.3 77-52.3 98.4-93.4l-65.9 0c-7.3 35.9-18.5 67.7-32.6 93.4zm-172.2 0c-14.1-25.6-25.3-57.5-32.6-93.4l-65.9 0c21.4 41.1 56.1 74.1 98.4 93.4zM256 512A256 256 0 1 1 256 0a256 256 0 1 1 0 512z"/>
</symbol>
<symbol id="magnifying-glass" viewBox="0 0 512 512">
<path d="M368 208A160 160 0 1 0 48 208a160 160 0 1 0 320 0zM337.1 371.1C301.7 399.2 256.8 416 208 416C93.1 416 0 322.9 0 208S93.1 0 208 0S416 93.1 416 208c0 48.8-16.8 93.7-44.9 129.1L505 471c9.4 9.4 9.4 24.6 0 33.9s-24.6 9.4-33.9 0L337.1 371.1z"/>
</symbol>
<symbol id="book-open" viewBox="0 0 576 512">
<path d="M156 32C100.6 32 48.8 46.6 27.1 53.6C10.3 59 0 74.5 0 91.1L0 403.5c0 26.1 24 44.2 48 40.2c19.8-3.3 54.8-7.7 100-7.7c54 0 97.5 25.5 112.5 35.6c7.5 5 16.8 8.4 27 8.4c11.5 0 21.6-4.2 29.3-9.9C330.2 460.3 369.1 436 428 436c47.7 0 80.5 4 99 7.2c23.9 4.1 49-13.8 49-40.6l0-311.5c0-16.5-10.3-32.1-27.1-37.5C527.2 46.6 475.4 32 420 32c-36.8 0-71.8 6.4-97.4 12.7c-12.8 3.2-23.5 6.3-30.9 8.7c-1.3 .4-2.6 .8-3.7 1.2c-1.1-.4-2.4-.8-3.7-1.2c-7.5-2.4-18.1-5.5-30.9-8.7C227.8 38.4 192.8 32 156 32zM264 97.3l0 320.6C238 404.2 196.8 388 148 388c-42.9 0-77.4 3.7-100 7.1L48 97.3C70.3 90.6 112.4 80 156 80c31.6 0 62.6 5.6 85.9 11.3c8.6 2.1 16.1 4.2 22.1 6zm48 319.2l0-319.2c6-1.8 13.5-3.9 22.1-6C357.4 85.6 388.4 80 420 80c43.6 0 85.7 10.6 108 17.3l0 297.4c-21.7-3.3-54.9-6.7-100-6.7c-51.4 0-90.8 15-116 28.6z"/>
</symbol>
<symbol id="image" viewBox="0 0 512 512">
<path d="M448 80c8.8 0 16 7.2 16 16l0 319.8-5-6.5-136-176c-4.5-5.9-11.6-9.3-19-9.3s-14.4 3.4-19 9.3L202 340.7l-30.5-42.7C167 291.7 159.8 288 152 288s-15 3.7-19.5 10.1l-80 112L48 416.3l0-.3L48 96c0-8.8 7.2-16 16-16l384 0zM64 32C28.7 32 0 60.7 0 96L0 416c0 35.3 28.7 64 64 64l384 0c35.3 0 64-28.7 64-64l0-320c0-35.3-28.7-64-64-64L64 32zm80 192a48 48 0 1 0 0-96 48 48 0 1 0 0 96z"/>
</symbol>
<symbol id="list" viewBox="0 0 512 512">
<path d="M40 48C26.7 48 16 58.7 16 72l0 48c0 13.3 10.7 24 24 24l48 0c13.3 0 24-10.7 24-24l0-48c0-13.3-10.7-24-24-24L40 48zM184 72c-13.3 0-24 10.7-24 24s10.7 24 24 24l304 0c13.3 0 24-10.7 24-24s-10.7-24-24-24L184 72zm0 160c-13.3 0-24 10.7-24 24s10.7 24 24 24l304 0c13.3 0 24-10.7 24-24s-10.7-24-24-24l-304 0zm0 160c-13.3 0-24 10.7-24 24s10.7 24 24 24l304 0c13.3 0 24-10.7 24-24s-10.7-24-24-24l-304 0zM16 232l0 48c0 13.3 10.7 24 24 24l48 0c13.3 0 24-10.7 24-24l0-48c0-13.3-10.7-24-24-24l-48 0c-13.3 0-24 10.7-24 24zM40 368c-13.3 0-24 10.7-24 24l0 48c0 13.3 10.7 24 24 24l48 0c13.3 0 24-10.7 24-24l0-48c0-13.3-10.7-24-24-24l-48 0z"/>
</symbol>
<symbol id="list-check" viewBox="0 0 512 512">
<path d="M153.8 72.1c8.9-9.9 8.1-25-1.8-33.9s-25-8.1-33.9 1.8L63.1 101.1 41 79C31.6 69.7 16.4 69.7 7 79s-9.4 24.6 0 33.9l40 40c4.7 4.7 11 7.2 17.6 7s12.8-3 17.2-7.9l72-80zm0 160c8.9-9.9 8.1-25-1.8-33.9s-25-8.1-33.9 1.8L63.1 261.1 41 239c-9.4-9.4-24.6-9.4-33.9 0s-9.4 24.6 0 33.9l40 40c4.7 4.7 11 7.2 17.6 7s12.8-3 17.2-7.9l72-80zM216 120l272 0c13.3 0 24-10.7 24-24s-10.7-24-24-24L216 72c-13.3 0-24 10.7-24 24s10.7 24 24 24zM192 256c0 13.3 10.7 24 24 24l272 0c13.3 0 24-10.7 24-24s-10.7-24-24-24l-272 0c-13.3 0-24 10.7-24 24zM160 416c0 13.3 10.7 24 24 24l304 0c13.3 0 24-10.7 24-24s-10.7-24-24-24l-304 0c-13.3 0-24 10.7-24 24zm-64 0a32 32 0 1 0 -64 0 32 32 0 1 0 64 0z"/>
</symbol>
<symbol id="house" viewBox="0 0 576 512">
<path d="M303.5 5.7c-9-7.6-22.1-7.6-31.1 0l-264 224c-10.1 8.6-11.3 23.7-2.8 33.8s23.7 11.3 33.8 2.8L64 245.5 64 432c0 44.2 35.8 80 80 80l288 0c44.2 0 80-35.8 80-80l0-186.5 24.5 20.8c10.1 8.6 25.3 7.3 33.8-2.8s7.3-25.3-2.8-33.8l-264-224zM112 432l0-227.2L288 55.5 464 204.8 464 432c0 17.7-14.3 32-32 32l-48 0 0-152c0-22.1-17.9-40-40-40l-112 0c-22.1 0-40 17.9-40 40l0 152-48 0c-17.7 0-32-14.3-32-32zm128 32l0-144 96 0 0 144-96 0z"/>
</symbol>
<symbol id="calendar-days" viewBox="0 0 448 512">
<path d="M152 24c0-13.3-10.7-24-24-24s-24 10.7-24 24l0 40L64 64C28.7 64 0 92.7 0 128l0 16 0 48L0 448c0 35.3 28.7 64 64 64l320 0c35.3 0 64-28.7 64-64l0-256 0-48 0-16c0-35.3-28.7-64-64-64l-40 0 0-40c0-13.3-10.7-24-24-24s-24 10.7-24 24l0 40L152 64l0-40zM48 192l80 0 0 56-80 0 0-56zm0 104l80 0 0 64-80 0 0-64zm128 0l96 0 0 64-96 0 0-64zm144 0l80 0 0 64-80 0 0-64zm80-48l-80 0 0-56 80 0 0 56zm0 160l0 40c0 8.8-7.2 16-16 16l-64 0 0-56 80 0zm-128 0l0 56-96 0 0-56 96 0zm-144 0l0 56-64 0c-8.8 0-16-7.2-16-16l0-40 80 0zM272 248l-96 0 0-56 96 0 0 56z"/>
</symbol>
<symbol id="share-nodes" viewBox="0 0 448 512">
<path d="M448 128c0 53-43 96-96 96c-28.9 0-54.8-12.8-72.4-33l-89.7 44.9c1.4 6.5 2.1 13.2 2.1 20.1s-.7 13.6-2.1 20.1L279.6 321c17.6-20.2 43.5-33 72.4-33c53 0 96 43 96 96s-43 96-96 96s-96-43-96-96c0-6.9 .7-13.6 2.1-20.1L168.4 319c-17.6 20.2-43.5 33-72.4 33c-53 0-96-43-96-96s43-96 96-96c28.9 0 54.8 12.8 72.4 33l89.7-44.9c-1.4-6.5-2.1-13.2-2.1-20.1c0-53 43-96 96-96s96 43 96 96zM96 304a48 48 0 1 0 0-96 48 48 0 1 0 0 96zM400 128a48 48 0 1 0 -96 0 48 48 0 1 0 96 0zM352 432a48 48 0 1 0 0-96 48 48 0 1 0 0 96z"/>
</symbol>
<symbol id="buildings" viewBox="0 0 512 512">
<path d="M448 48c8.8 0 16 7.2 16 16l0 384c0 8.8-7.2 16-16 16l-160 0c-8.8 0-16-7.2-16-16l0-384c0-8.8 7.2-16 16-16l160 0zM288 0c-35.3 0-64 28.7-64 64l0 384c0 35.3 28.7 64 64 64l160 0c35.3 0 64-28.7 64-64l0-384c0-35.3-28.7-64-64-64L288 0zM192 128L72 128c-39.8 0-72 32.2-72 72L0 440c0 39.8 32.2 72 72 72l144.4 0c-11.8-13.2-20.1-29.7-23.1-48L72 464c-13.3 0-24-10.7-24-24l0-240c0-13.3 10.7-24 24-24l120 0 0-48zM112 320c-8.8 0-16 7.2-16 16l0 32c0 8.8 7.2 16 16 16l32 0c8.8 0 16-7.2 16-16l0-32c0-8.8-7.2-16-16-16l-32 0zm224 16c0 8.8 7.2 16 16 16l32 0c8.8 0 16-7.2 16-16l0-32c0-8.8-7.2-16-16-16l-32 0c-8.8 0-16 7.2-16 16l0 32zM112 224c-8.8 0-16 7.2-16 16l0 32c0 8.8 7.2 16 16 16l32 0c8.8 0 16-7.2 16-16l0-32c0-8.8-7.2-16-16-16l-32 0zM336 112l0 32c0 8.8 7.2 16 16 16l32 0c8.8 0 16-7.2 16-16l0-32c0-8.8-7.2-16-16-16l-32 0c-8.8 0-16 7.2-16 16zm16 144l32 0c8.8 0 16-7.2 16-16l0-32c0-8.8-7.2-16-16-16l-32 0c-8.8 0-16 7.2-16 16l0 32c0 8.8 7.2 16 16 16z"/>
</symbol>
</svg>