<?xml version="1.0" encoding="UTF-8"?>
<svg xmlns="http://www.w3.org/2000/svg" style="display: none;">
<symbol id="user-tie-hair" viewBox="0 0 448 512">
<path d="M304 144l0-16c0-11.4-2.4-22.2-6.7-32L256 96 240 80l-32 32-62.4 0c-1 5.2-1.6 10.5-1.6 16l0 16c0 44.2 35.8 80 80 80s80-35.8 80-80zM224 0c70.7 0 128 57.3 128 128l0 16c0 70.7-57.3 128-128 128s-128-57.3-128-128l0-16C96 57.3 153.3 0 224 0zM209.1 359.2L176 304l48 0 48 0-33.1 55.2 33.4 123.9L312.2 320l71.8 0 64 192-168 0-14.9 0-82.3 0L168 512 0 512 64 320l71.8 0 39.9 163.1 33.4-123.9z"/>
</symbol>
<symbol id="city" viewBox="0 0 640 512">
<path d="M480 0L288 0l0 96-64 0 0-72 0-24L176 0l0 24 0 72-64 0 0-72 0-24L64 0l0 24 0 72L0 96l0 96L0 512l288 0 64 0 128 0 160 0 0-320-160 0L480 0zm96 352l0 64-64 0 0-64 64 0zm-384 0l64 0 0 64-64 0 0-64zm-64 64l-64 0 0-64 64 0 0 64zM512 256l64 0 0 64-64 0 0-64zM64 160l64 0 0 64-64 0 0-64zm192 96l0 64-64 0 0-64 64 0zm0-96l0 64-64 0 0-64 64 0zM64 320l0-64 64 0 0 64-64 0zm352-64l0 64-64 0 0-64 64 0zM352 64l64 0 0 64-64 0 0-64zm64 96l0 64-64 0 0-64 64 0z"/>
</symbol>
<symbol id="calendar-check" viewBox="0 0 448 512">
<path d="M160 0l0 64 128 0 0-64 64 0 0 64 96 0 0 96L0 160 0 64l96 0L96 0l64 0zM0 192l448 0 0 320L0 512 0 192zM329 305l17-17L312 254.1l-17 17-95 95-47-47-17-17L102.1 336l17 17 64 64 17 17 17-17L329 305z"/>
</symbol>
<symbol id="books" viewBox="0 0 512 512">
<path d="M355.4 398.3L320 268.3l0-125.5 93.7-25.1 67.2 247L355.4 398.3zM405.3 86.8L320 109.6l0-93.4L381.7 0l23.6 86.8zM363.8 429.2l125.5-33.6L512 478.9 386.3 512l-22.5-82.8zM0 0L128 0l0 96L0 96 0 0zM0 128l128 0 0 256L0 384 0 128zM0 416l128 0 0 96L0 512l0-96zM160 0L288 0l0 96L160 96l0-96zm0 128l128 0 0 256-128 0 0-256zm0 288l128 0 0 96-128 0 0-96z"/>
</symbol>
<symbol id="folders" viewBox="0 0 576 512">
<path d="M576 384l0-288L368 96 304 32 96 32l0 352 480 0zM48 120l0-24L0 96l0 24L0 456l0 24 24 0 432 0 24 0 0-48-24 0L48 432l0-312z"/>
</symbol>
<symbol id="users" viewBox="0 0 640 512">
<path d="M144 0a80 80 0 1 1 0 160A80 80 0 1 1 144 0zM512 0a80 80 0 1 1 0 160A80 80 0 1 1 512 0zM48 192l148 0c-2.6 10.2-4 21-4 32c0 38.2 16.8 72.5 43.3 96L0 320 48 192zM640 320l-235.3 0c26.6-23.5 43.3-57.8 43.3-96c0-11-1.4-21.8-4-32l148 0 48 128zM224 224a96 96 0 1 1 192 0 96 96 0 1 1 -192 0zM464 352l48 160-384 0 48-160 288 0z"/>
</symbol>
</svg>